# xmcd CD database file
#
# Track frame offsets:
#	150
#	13833
#	20963
#	41521
#	54777
#	72236
#	87375
#	102271
#	118003
#	133987
#	143469
#	165605
#	184795
#	198847
#	216547
#	223966
#	245605
#	264811
#
# Disc length: 3821 seconds
#
# Revision: 0
# Processed by: cddbd v1.5.1PL2 Copyright (c) Steve Scherf et al.
# Submitted via: CDex 1.40Release
#
DISCID=0e0eeb12
DTITLE=Atsuhiko Nakatsubo - Water*Birds*Wind
DYEAR=2006
DGENRE=Soundtrack
TTITLE0=water・birds and wind (第61回冬季国体開会式 opening)
TTITLE1=swan (第61回冬季国体開会式 opening)
TTITLE2=fairys (第61回冬季国体開会式 opening)
TTITLE3=one small hope (第61回冬季国体開会式 opening)
TTITLE4=星月夜 -ほしづくよ-
TTITLE5=baobab
TTITLE6=connection take 4
TTITLE7=lightning horizon (舞台 「勇武津原野の妖精たち」)
TTITLE8=in the sky
TTITLE9=opening (舞台 「風の子妖精ピピンの冒険」)
TTITLE10=decision (pipin)
TTITLE11=chaos (pipin 〜theme of malevolent deity〜魔神のテーマ)
TTITLE12=cosmos (pipin)
TTITLE13=friends (pipin)
TTITLE14=風の子マーチ (pipin)
TTITLE15=明けの明星 (pipin)
TTITLE16=蠍の懺悔 (舞台 「銀河鉄道の夜」)
TTITLE17=forest of god (fish tone 1st album) 未収録曲、舞台 「悠々200年」 使用曲)
EXTD=YEAR: 2006 ID3G: 24
EXTT0=
EXTT1=
EXTT2=
EXTT3=
EXTT4=
EXTT5=
EXTT6=
EXTT7=
EXTT8=
EXTT9=
EXTT10=
EXTT11=
EXTT12=
EXTT13=
EXTT14=
EXTT15=
EXTT16=
EXTT17=
PLAYORDER=
